<?xml version="1.0" encoding="UTF-8"?>
<!DOCTYPE svg PUBLIC "-//W3C//DTD SVG 1.1//EN" "http://www.w3.org/Graphics/SVG/1.1/DTD/svg11.dtd">
<svg xmlns="http://www.w3.org/2000/svg" version="1.1" width="117px" height="120px" style="shape-rendering:geometricPrecision; text-rendering:geometricPrecision; image-rendering:optimizeQuality; fill-rule:evenodd; clip-rule:evenodd" xmlns:xlink="http://www.w3.org/1999/xlink">
<g><path style="opacity:1" fill="#f8f8f8" d="M -0.5,-0.5 C 38.5,-0.5 77.5,-0.5 116.5,-0.5C 116.5,2.16667 116.5,4.83333 116.5,7.5C 114.66,5.83203 112.66,4.33203 110.5,3C 75.8333,2.33333 41.1667,2.33333 6.5,3C 5.06919,3.46524 3.90252,4.29857 3,5.5C 1.34685,41.0818 1.01352,76.7485 2,112.5C 3.07568,115.079 4.90902,116.746 7.5,117.5C 41.9976,118.664 76.6642,118.831 111.5,118C 112.056,117.617 112.389,117.117 112.5,116.5C 114.539,115.328 115.872,113.662 116.5,111.5C 116.5,114.167 116.5,116.833 116.5,119.5C 77.5,119.5 38.5,119.5 -0.5,119.5C -0.5,79.5 -0.5,39.5 -0.5,-0.5 Z"/></g>
<g><path style="opacity:1" fill="#101010" d="M 116.5,7.5 C 116.5,42.1667 116.5,76.8333 116.5,111.5C 115.872,113.662 114.539,115.328 112.5,116.5C 77.5432,117.487 42.5432,117.82 7.5,117.5C 4.90902,116.746 3.07568,115.079 2,112.5C 1.01352,76.7485 1.34685,41.0818 3,5.5C 3.90252,4.29857 5.06919,3.46524 6.5,3C 41.1667,2.33333 75.8333,2.33333 110.5,3C 112.66,4.33203 114.66,5.83203 116.5,7.5 Z"/></g>
<g><path style="opacity:1" fill="#fbfbfb" d="M 9.5,10.5 C 42.5,10.5 75.5,10.5 108.5,10.5C 108.5,43.8333 108.5,77.1667 108.5,110.5C 75.5,110.5 42.5,110.5 9.5,110.5C 9.5,77.1667 9.5,43.8333 9.5,10.5 Z"/></g>
<g><path style="opacity:1" fill="#131313" d="M 26.5,33.5 C 48.1692,33.3334 69.8359,33.5 91.5,34C 94.1667,36.3333 94.1667,38.6667 91.5,41C 69.8333,41.6667 48.1667,41.6667 26.5,41C 23.9142,38.506 23.9142,36.006 26.5,33.5 Z"/></g>
<g><path style="opacity:1" fill="#151515" d="M 26.5,56.5 C 48.1692,56.3334 69.8359,56.5 91.5,57C 94.3207,59.7169 93.9874,62.0502 90.5,64C 69.1667,64.6667 47.8333,64.6667 26.5,64C 23.9142,61.506 23.9142,59.006 26.5,56.5 Z"/></g>
<g><path style="opacity:1" fill="#141414" d="M 26.5,79.5 C 48.1692,79.3334 69.8359,79.5 91.5,80C 94.3707,82.8402 94.0374,85.1735 90.5,87C 69.1667,87.6667 47.8333,87.6667 26.5,87C 23.9142,84.506 23.9142,82.006 26.5,79.5 Z"/></g>
<g><path style="opacity:1" fill="#b9b9b9" d="M 112.5,116.5 C 112.389,117.117 112.056,117.617 111.5,118C 76.6642,118.831 41.9976,118.664 7.5,117.5C 42.5432,117.82 77.5432,117.487 112.5,116.5 Z"/></g>
</svg>
