<?xml version="1.0" encoding="UTF-8"?>
<!DOCTYPE svg PUBLIC "-//W3C//DTD SVG 1.1//EN" "http://www.w3.org/Graphics/SVG/1.1/DTD/svg11.dtd">
<svg xmlns="http://www.w3.org/2000/svg" version="1.1" width="512px" height="512px" style="shape-rendering:geometricPrecision; text-rendering:geometricPrecision; image-rendering:optimizeQuality; fill-rule:evenodd; clip-rule:evenodd" xmlns:xlink="http://www.w3.org/1999/xlink">
<g><path style="opacity:1" fill="#fdfdfd" d="M -0.5,-0.5 C 170.167,-0.5 340.833,-0.5 511.5,-0.5C 511.5,25.8333 511.5,52.1667 511.5,78.5C 487.132,60.1381 462.465,42.1381 437.5,24.5C 421.48,45.1939 405.813,66.1939 390.5,87.5C 414.87,105.707 439.37,123.707 464,141.5C 480.004,120.992 495.837,100.325 511.5,79.5C 511.5,223.5 511.5,367.5 511.5,511.5C 340.833,511.5 170.167,511.5 -0.5,511.5C -0.5,507.833 -0.5,504.167 -0.5,500.5C 119.833,500.5 240.167,500.5 360.5,500.5C 360.333,427.833 360.5,355.166 361,282.5C 392.577,240.345 423.911,198.011 455,155.5C 455.982,154.241 456.315,152.908 456,151.5C 451.771,147.638 447.271,144.138 442.5,141C 441.004,140.493 439.837,140.993 439,142.5C 382.577,219.678 325.911,296.678 269,373.5C 268.289,375.367 268.789,376.867 270.5,378C 274.974,380.973 279.307,384.14 283.5,387.5C 301.667,363.167 319.833,338.833 338,314.5C 338.5,368.832 338.667,423.166 338.5,477.5C 233.167,477.5 127.833,477.5 22.5,477.5C 22.5,339.167 22.5,200.833 22.5,62.5C 24.5,62.5 26.5,62.5 28.5,62.5C 28.1795,67.6946 28.5128,72.6946 29.5,77.5C 31.8714,86.6859 37.538,89.5192 46.5,86C 48.3783,84.4571 49.8783,82.6238 51,80.5C 51.1724,74.3193 51.6724,68.3193 52.5,62.5C 57.8333,62.5 63.1667,62.5 68.5,62.5C 68.1795,67.6946 68.5128,72.6946 69.5,77.5C 71.8714,86.6859 77.538,89.5192 86.5,86C 89.5956,83.9713 91.2623,81.138 91.5,77.5C 92.4872,72.6946 92.8205,67.6946 92.5,62.5C 97.8333,62.5 103.167,62.5 108.5,62.5C 107.901,69.3914 108.735,76.058 111,82.5C 117.3,89.0794 123.633,89.0794 130,82.5C 130.608,80.8455 131.108,79.1789 131.5,77.5C 132.487,72.6946 132.821,67.6946 132.5,62.5C 137.833,62.5 143.167,62.5 148.5,62.5C 148.334,68.1764 148.501,73.8431 149,79.5C 154.796,88.8994 161.796,89.8994 170,82.5C 171.377,75.9236 171.877,69.2569 171.5,62.5C 177.167,62.5 182.833,62.5 188.5,62.5C 188.334,68.1764 188.501,73.8431 189,79.5C 193.139,87.8799 199.306,89.7132 207.5,85C 209.041,83.4207 210.208,81.5873 211,79.5C 211.499,73.8431 211.666,68.1764 211.5,62.5C 217.167,62.5 222.833,62.5 228.5,62.5C 228.334,68.1764 228.501,73.8431 229,79.5C 233.091,87.8789 239.258,89.7122 247.5,85C 249.041,83.4207 250.208,81.5873 251,79.5C 251.499,73.8431 251.666,68.1764 251.5,62.5C 257.167,62.5 262.833,62.5 268.5,62.5C 268.334,68.1764 268.501,73.8431 269,79.5C 273.091,87.8789 279.258,89.7122 287.5,85C 289.041,83.4207 290.208,81.5873 291,79.5C 291.499,73.8431 291.666,68.1764 291.5,62.5C 297.167,62.5 302.833,62.5 308.5,62.5C 308.334,68.1764 308.501,73.8431 309,79.5C 313.091,87.8789 319.258,89.7122 327.5,85C 329.041,83.4207 330.208,81.5873 331,79.5C 331.499,73.8431 331.666,68.1764 331.5,62.5C 333.833,62.5 336.167,62.5 338.5,62.5C 338.667,94.5017 338.5,126.502 338,158.5C 295.167,216.667 252.333,274.833 209.5,333C 214.694,337.027 220.027,340.86 225.5,344.5C 283.476,267.228 340.976,189.561 398,111.5C 398.711,109.633 398.211,108.133 396.5,107C 392.026,104.027 387.693,100.86 383.5,97.5C 376.503,106.825 369.503,116.158 362.5,125.5C 361.833,96.8333 361.167,68.1667 360.5,39.5C 350.833,39.5 341.167,39.5 331.5,39.5C 331.666,32.4921 331.5,25.4921 331,18.5C 326.656,10.6081 320.489,8.77475 312.5,13C 310.959,14.5793 309.792,16.4127 309,18.5C 308.5,25.4921 308.334,32.4921 308.5,39.5C 302.833,39.5 297.167,39.5 291.5,39.5C 291.666,32.4921 291.5,25.4921 291,18.5C 286.699,10.6234 280.533,8.7901 272.5,13C 270.959,14.5793 269.792,16.4127 269,18.5C 268.5,25.4921 268.334,32.4921 268.5,39.5C 262.833,39.5 257.167,39.5 251.5,39.5C 251.666,32.4921 251.5,25.4921 251,18.5C 247.54,11.1878 242.04,9.02109 234.5,12C 232.083,13.6626 230.25,15.8293 229,18.5C 228.5,25.1583 228.334,31.825 228.5,38.5C 223.167,38.5 217.833,38.5 212.5,38.5C 212.822,32.642 212.489,26.9753 211.5,21.5C 209.447,12.1355 203.78,8.96883 194.5,12C 192.083,13.6626 190.25,15.8293 189,18.5C 188.5,25.1583 188.334,31.825 188.5,38.5C 183.167,38.5 177.833,38.5 172.5,38.5C 172.822,32.642 172.489,26.9753 171.5,21.5C 170.764,14.4357 166.764,10.7691 159.5,10.5C 154.344,11.4842 150.844,14.4842 149,19.5C 148.5,25.8246 148.334,32.1579 148.5,38.5C 143.167,38.5 137.833,38.5 132.5,38.5C 132.823,32.31 132.49,26.31 131.5,20.5C 130.299,13.976 126.299,10.6427 119.5,10.5C 114.27,11.3966 110.937,14.3966 109.5,19.5C 108.51,25.6446 108.177,31.9779 108.5,38.5C 103.167,38.5 97.8333,38.5 92.5,38.5C 92.8235,31.9779 92.4902,25.6446 91.5,19.5C 87.8251,10.8273 81.8251,8.66064 73.5,13C 71.2663,14.6379 69.933,16.8045 69.5,19.5C 68.5098,25.6446 68.1765,31.9779 68.5,38.5C 63.1667,38.5 57.8333,38.5 52.5,38.5C 52.8235,31.9779 52.4902,25.6446 51.5,19.5C 48.4432,11.3083 42.7765,8.80835 34.5,12C 31.8002,13.8567 30.1335,16.3567 29.5,19.5C 28.5098,25.6446 28.1765,31.9779 28.5,38.5C 18.8333,38.5 9.16667,38.5 -0.5,38.5C -0.5,25.5 -0.5,12.5 -0.5,-0.5 Z"/></g>
<g><path style="opacity:1" fill="#020202" d="M 51.5,19.5 C 51.5,26.1667 51.5,32.8333 51.5,39.5C 57.5,39.5 63.5,39.5 69.5,39.5C 69.5,32.8333 69.5,26.1667 69.5,19.5C 69.933,16.8045 71.2663,14.6379 73.5,13C 81.8251,8.66064 87.8251,10.8273 91.5,19.5C 91.5,26.1667 91.5,32.8333 91.5,39.5C 97.5,39.5 103.5,39.5 109.5,39.5C 109.5,32.8333 109.5,26.1667 109.5,19.5C 110.937,14.3966 114.27,11.3966 119.5,10.5C 126.299,10.6427 130.299,13.976 131.5,20.5C 131.5,26.8333 131.5,33.1667 131.5,39.5C 137.358,39.8222 143.025,39.4889 148.5,38.5C 148.334,32.1579 148.5,25.8246 149,19.5C 150.844,14.4842 154.344,11.4842 159.5,10.5C 166.764,10.7691 170.764,14.4357 171.5,21.5C 171.5,27.5 171.5,33.5 171.5,39.5C 177.358,39.8222 183.025,39.4889 188.5,38.5C 188.334,31.825 188.5,25.1583 189,18.5C 190.25,15.8293 192.083,13.6626 194.5,12C 203.78,8.96883 209.447,12.1355 211.5,21.5C 211.5,27.5 211.5,33.5 211.5,39.5C 217.358,39.8222 223.025,39.4889 228.5,38.5C 228.334,31.825 228.5,25.1583 229,18.5C 230.25,15.8293 232.083,13.6626 234.5,12C 242.04,9.02109 247.54,11.1878 251,18.5C 251.5,25.4921 251.666,32.4921 251.5,39.5C 257.167,39.5 262.833,39.5 268.5,39.5C 268.334,32.4921 268.5,25.4921 269,18.5C 269.792,16.4127 270.959,14.5793 272.5,13C 280.533,8.7901 286.699,10.6234 291,18.5C 291.5,25.4921 291.666,32.4921 291.5,39.5C 297.167,39.5 302.833,39.5 308.5,39.5C 308.334,32.4921 308.5,25.4921 309,18.5C 309.792,16.4127 310.959,14.5793 312.5,13C 320.489,8.77475 326.656,10.6081 331,18.5C 331.5,25.4921 331.666,32.4921 331.5,39.5C 341.167,39.5 350.833,39.5 360.5,39.5C 360.333,68.8352 360.5,98.1686 361,127.5C 361.717,126.956 362.217,126.289 362.5,125.5C 369.503,116.158 376.503,106.825 383.5,97.5C 387.693,100.86 392.026,104.027 396.5,107C 398.211,108.133 398.711,109.633 398,111.5C 340.976,189.561 283.476,267.228 225.5,344.5C 220.027,340.86 214.694,337.027 209.5,333C 252.333,274.833 295.167,216.667 338,158.5C 338.5,126.502 338.667,94.5017 338.5,62.5C 336.167,62.5 333.833,62.5 331.5,62.5C 331.666,68.1764 331.499,73.8431 331,79.5C 330.208,81.5873 329.041,83.4207 327.5,85C 319.258,89.7122 313.091,87.8789 309,79.5C 308.501,73.8431 308.334,68.1764 308.5,62.5C 302.833,62.5 297.167,62.5 291.5,62.5C 291.666,68.1764 291.499,73.8431 291,79.5C 290.208,81.5873 289.041,83.4207 287.5,85C 279.258,89.7122 273.091,87.8789 269,79.5C 268.501,73.8431 268.334,68.1764 268.5,62.5C 262.833,62.5 257.167,62.5 251.5,62.5C 251.666,68.1764 251.499,73.8431 251,79.5C 250.208,81.5873 249.041,83.4207 247.5,85C 239.258,89.7122 233.091,87.8789 229,79.5C 228.501,73.8431 228.334,68.1764 228.5,62.5C 222.833,62.5 217.167,62.5 211.5,62.5C 211.666,68.1764 211.499,73.8431 211,79.5C 210.208,81.5873 209.041,83.4207 207.5,85C 199.306,89.7132 193.139,87.8799 189,79.5C 188.501,73.8431 188.334,68.1764 188.5,62.5C 182.833,62.5 177.167,62.5 171.5,62.5C 171.877,69.2569 171.377,75.9236 170,82.5C 161.796,89.8994 154.796,88.8994 149,79.5C 148.501,73.8431 148.334,68.1764 148.5,62.5C 143.025,61.5111 137.358,61.1778 131.5,61.5C 131.5,66.8333 131.5,72.1667 131.5,77.5C 131.108,79.1789 130.608,80.8455 130,82.5C 123.633,89.0794 117.3,89.0794 111,82.5C 108.735,76.058 107.901,69.3914 108.5,62.5C 103.025,61.5111 97.358,61.1778 91.5,61.5C 91.5,66.8333 91.5,72.1667 91.5,77.5C 91.2623,81.138 89.5956,83.9713 86.5,86C 77.538,89.5192 71.8714,86.6859 69.5,77.5C 69.5,72.1667 69.5,66.8333 69.5,61.5C 63.642,61.1778 57.9753,61.5111 52.5,62.5C 51.6724,68.3193 51.1724,74.3193 51,80.5C 49.8783,82.6238 48.3783,84.4571 46.5,86C 37.538,89.5192 31.8714,86.6859 29.5,77.5C 29.5,72.1667 29.5,66.8333 29.5,61.5C 26.9407,61.1984 24.6074,61.5318 22.5,62.5C 22.5,200.833 22.5,339.167 22.5,477.5C 127.833,477.5 233.167,477.5 338.5,477.5C 338.667,423.166 338.5,368.832 338,314.5C 319.833,338.833 301.667,363.167 283.5,387.5C 279.307,384.14 274.974,380.973 270.5,378C 268.789,376.867 268.289,375.367 269,373.5C 325.911,296.678 382.577,219.678 439,142.5C 439.837,140.993 441.004,140.493 442.5,141C 447.271,144.138 451.771,147.638 456,151.5C 456.315,152.908 455.982,154.241 455,155.5C 423.911,198.011 392.577,240.345 361,282.5C 360.5,355.166 360.333,427.833 360.5,500.5C 240.167,500.5 119.833,500.5 -0.5,500.5C -0.5,346.833 -0.5,193.167 -0.5,39.5C 9.5,39.5 19.5,39.5 29.5,39.5C 29.5,32.8333 29.5,26.1667 29.5,19.5C 30.1335,16.3567 31.8002,13.8567 34.5,12C 42.7765,8.80835 48.4432,11.3083 51.5,19.5 Z"/></g>
<g><path style="opacity:1" fill="#020202" d="M 511.5,78.5 C 511.5,78.8333 511.5,79.1667 511.5,79.5C 495.837,100.325 480.004,120.992 464,141.5C 439.37,123.707 414.87,105.707 390.5,87.5C 405.813,66.1939 421.48,45.1939 437.5,24.5C 462.465,42.1381 487.132,60.1381 511.5,78.5 Z"/></g>
<g><path style="opacity:1" fill="#b0b0b0" d="M 29.5,19.5 C 29.5,26.1667 29.5,32.8333 29.5,39.5C 19.5,39.5 9.5,39.5 -0.5,39.5C -0.5,39.1667 -0.5,38.8333 -0.5,38.5C 9.16667,38.5 18.8333,38.5 28.5,38.5C 28.1765,31.9779 28.5098,25.6446 29.5,19.5 Z"/></g>
<g><path style="opacity:1" fill="#9c9c9c" d="M 51.5,19.5 C 52.4902,25.6446 52.8235,31.9779 52.5,38.5C 57.8333,38.5 63.1667,38.5 68.5,38.5C 68.1765,31.9779 68.5098,25.6446 69.5,19.5C 69.5,26.1667 69.5,32.8333 69.5,39.5C 63.5,39.5 57.5,39.5 51.5,39.5C 51.5,32.8333 51.5,26.1667 51.5,19.5 Z"/></g>
<g><path style="opacity:1" fill="#9b9b9b" d="M 91.5,19.5 C 92.4902,25.6446 92.8235,31.9779 92.5,38.5C 97.8333,38.5 103.167,38.5 108.5,38.5C 108.177,31.9779 108.51,25.6446 109.5,19.5C 109.5,26.1667 109.5,32.8333 109.5,39.5C 103.5,39.5 97.5,39.5 91.5,39.5C 91.5,32.8333 91.5,26.1667 91.5,19.5 Z"/></g>
<g><path style="opacity:1" fill="#b5b5b5" d="M 131.5,20.5 C 132.49,26.31 132.823,32.31 132.5,38.5C 137.833,38.5 143.167,38.5 148.5,38.5C 143.025,39.4889 137.358,39.8222 131.5,39.5C 131.5,33.1667 131.5,26.8333 131.5,20.5 Z"/></g>
<g><path style="opacity:1" fill="#bdbdbd" d="M 171.5,21.5 C 172.489,26.9753 172.822,32.642 172.5,38.5C 177.833,38.5 183.167,38.5 188.5,38.5C 183.025,39.4889 177.358,39.8222 171.5,39.5C 171.5,33.5 171.5,27.5 171.5,21.5 Z"/></g>
<g><path style="opacity:1" fill="#c5c5c5" d="M 211.5,21.5 C 212.489,26.9753 212.822,32.642 212.5,38.5C 217.833,38.5 223.167,38.5 228.5,38.5C 223.025,39.4889 217.358,39.8222 211.5,39.5C 211.5,33.5 211.5,27.5 211.5,21.5 Z"/></g>
<g><path style="opacity:1" fill="#8f8f8f" d="M 360.5,39.5 C 361.167,68.1667 361.833,96.8333 362.5,125.5C 362.217,126.289 361.717,126.956 361,127.5C 360.5,98.1686 360.333,68.8352 360.5,39.5 Z"/></g>
<g><path style="opacity:1" fill="#747474" d="M 52.5,62.5 C 57.9753,61.5111 63.642,61.1778 69.5,61.5C 69.5,66.8333 69.5,72.1667 69.5,77.5C 68.5128,72.6946 68.1795,67.6946 68.5,62.5C 63.1667,62.5 57.8333,62.5 52.5,62.5 Z"/></g>
<g><path style="opacity:1" fill="#868686" d="M 108.5,62.5 C 103.167,62.5 97.8333,62.5 92.5,62.5C 92.8205,67.6946 92.4872,72.6946 91.5,77.5C 91.5,72.1667 91.5,66.8333 91.5,61.5C 97.358,61.1778 103.025,61.5111 108.5,62.5 Z"/></g>
<g><path style="opacity:1" fill="#969696" d="M 148.5,62.5 C 143.167,62.5 137.833,62.5 132.5,62.5C 132.821,67.6946 132.487,72.6946 131.5,77.5C 131.5,72.1667 131.5,66.8333 131.5,61.5C 137.358,61.1778 143.025,61.5111 148.5,62.5 Z"/></g>
<g><path style="opacity:1" fill="#898989" d="M 22.5,62.5 C 24.6074,61.5318 26.9407,61.1984 29.5,61.5C 29.5,66.8333 29.5,72.1667 29.5,77.5C 28.5128,72.6946 28.1795,67.6946 28.5,62.5C 26.5,62.5 24.5,62.5 22.5,62.5 Z"/></g>
<g><path style="opacity:1" fill="#000000" d="M 58.5,115.5 C 138.167,115.5 217.833,115.5 297.5,115.5C 297.5,124.833 297.5,134.167 297.5,143.5C 217.833,143.5 138.167,143.5 58.5,143.5C 58.5,134.167 58.5,124.833 58.5,115.5 Z"/></g>
<g><path style="opacity:1" fill="#030303" d="M 408.5,117.5 C 416.512,121.987 424.179,127.154 431.5,133C 373.667,211.5 315.833,290 258,368.5C 250.5,363 243,357.5 235.5,352C 293.054,273.715 350.721,195.548 408.5,117.5 Z"/></g>
<g><path style="opacity:1" fill="#000000" d="M 58.5,171.5 C 138.167,171.5 217.833,171.5 297.5,171.5C 297.5,180.833 297.5,190.167 297.5,199.5C 217.833,199.5 138.167,199.5 58.5,199.5C 58.5,190.167 58.5,180.833 58.5,171.5 Z"/></g>
<g><path style="opacity:1" fill="#000000" d="M 58.5,227.5 C 113.5,227.5 168.5,227.5 223.5,227.5C 223.5,236.833 223.5,246.167 223.5,255.5C 168.5,255.5 113.5,255.5 58.5,255.5C 58.5,246.167 58.5,236.833 58.5,227.5 Z"/></g>
<g><path style="opacity:1" fill="#030303" d="M 201.5,343.5 C 203.783,343.608 205.783,344.441 207.5,346C 230.641,362.974 253.641,380.141 276.5,397.5C 262.842,404.996 249.176,412.496 235.5,420C 232.281,421.955 228.947,423.288 225.5,424C 214.641,415.641 203.641,407.474 192.5,399.5C 192.167,398.667 191.833,397.833 191.5,397C 195.53,379.29 198.863,361.456 201.5,343.5 Z"/></g>
<g><path style="opacity:1" fill="#090909" d="M 188.5,412.5 C 197.547,418.034 206.214,424.201 214.5,431C 203.96,437.034 193.293,442.867 182.5,448.5C 183.647,436.497 185.647,424.497 188.5,412.5 Z"/></g>
</svg>
